<svg width="22" height="22" viewBox="0 0 22 22" fill="none" xmlns="http://www.w3.org/2000/svg">
<path d="M11.0015 2.94557e-08C9.2419 -0.000128723 7.5079 0.421832 5.94509 1.23046C4.38228 2.0391 3.03627 3.2108 2.02003 4.64723C1.00379 6.08366 0.346987 7.7429 0.104744 9.48567C-0.1375 11.2284 0.0418876 13.0039 0.627849 14.663C0.218379 15.3921 0.00250377 16.2138 0.000806938 17.05C0.00371285 18.3619 0.526197 19.6193 1.45394 20.547C2.38167 21.4746 3.63912 21.9971 4.95114 22C5.78735 21.9983 6.60919 21.7824 7.3383 21.373C8.84873 21.906 10.4573 22.1028 12.0517 21.9495C13.6461 21.7963 15.1878 21.2968 16.569 20.4859C17.9503 19.675 19.1378 18.5722 20.0485 17.2547C20.9593 15.9372 21.5713 14.4367 21.8419 12.8581C22.1125 11.2795 22.035 9.66089 21.615 8.11533C21.195 6.56976 20.4424 5.13456 19.4101 3.91001C18.3777 2.68547 17.0903 1.70112 15.638 1.02577C14.1856 0.350409 12.6033 0.000332097 11.0015 2.94557e-08V2.94557e-08ZM16.5019 14.3C15.8492 14.3 15.2111 14.1065 14.6684 13.7438C14.1257 13.3812 13.7027 12.8659 13.4529 12.2629C13.2031 11.6599 13.1378 10.9963 13.2651 10.3562C13.3924 9.71606 13.7068 9.12806 14.1683 8.66655C14.6298 8.20503 15.2179 7.89074 15.8581 7.76341C16.4983 7.63608 17.1618 7.70143 17.7649 7.9512C18.3679 8.20097 18.8833 8.62394 19.2459 9.16662C19.6086 9.7093 19.8021 10.3473 19.8021 11C19.8021 11.8752 19.4544 12.7146 18.8355 13.3335C18.2166 13.9523 17.3772 14.3 16.5019 14.3ZM11.0015 19.8C9.84596 19.8029 8.70145 19.5748 7.63532 19.129L7.06328 18.898L6.60125 19.261C6.07695 19.707 5.40393 19.9393 4.71613 19.9116C4.02832 19.8839 3.37614 19.5983 2.8894 19.1116C2.40265 18.6249 2.11701 17.9728 2.08932 17.285C2.06164 16.5972 2.29394 15.9243 2.73999 15.4L3.10302 14.905L2.872 14.333C2.43047 13.2772 2.20241 12.1444 2.20095 11C2.20785 9.15585 2.79398 7.36047 3.87655 5.86744C4.95912 4.37441 6.48342 3.25919 8.23416 2.6793C9.9849 2.09941 11.8736 2.08415 13.6335 2.63568C15.3933 3.18721 16.9355 4.27766 18.042 5.753C17.5448 5.58971 17.0253 5.50436 16.5019 5.5C15.0431 5.5 13.6441 6.07946 12.6126 7.11091C11.581 8.14236 11.0015 9.54131 11.0015 11C11.0015 12.4587 11.581 13.8576 12.6126 14.8891C13.6441 15.9205 15.0431 16.5 16.5019 16.5C17.0253 16.4956 17.5448 16.4103 18.042 16.247C17.2257 17.346 16.1643 18.2394 14.9421 18.8562C13.7199 19.473 12.3706 19.7962 11.0015 19.8V19.8Z" fill="white"/>
</svg>
