<svg width="168" height="53" viewBox="0 0 168 53" fill="none" xmlns="http://www.w3.org/2000/svg">
<g filter="url(#filter0_d)">
<rect x="2" y="1" width="164" height="49" rx="5" fill="url(#paint0_linear)"/>
<rect x="2.5" y="1.5" width="163" height="48" rx="4.5" stroke="url(#paint1_linear)"/>
</g>
<g filter="url(#filter1_d)">
<path d="M42.7884 23.323L24.717 12.3489C23.2487 11.4577 21 12.3226 21 14.5269V36.4696C21 38.4472 23.0895 39.639 24.717 38.6476L42.7884 27.6788C44.4004 26.7032 44.4056 24.2985 42.7884 23.323V23.323Z" fill="white"/>
</g>
<path d="M63.958 33.234C66.208 33.234 68.206 31.308 68.206 27.942C68.206 24.954 66.838 22.974 64.3 22.974C63.22 22.974 62.122 23.586 61.24 24.36L61.294 22.596V18.672H59.656V33H60.97L61.114 31.992H61.186C62.032 32.766 63.058 33.234 63.958 33.234ZM63.688 31.866C63.04 31.866 62.158 31.596 61.294 30.84V25.71C62.23 24.828 63.094 24.36 63.922 24.36C65.776 24.36 66.496 25.818 66.496 27.978C66.496 30.408 65.308 31.866 63.688 31.866ZM70.783 33H72.421V23.226H70.783V33ZM71.611 21.21C72.259 21.21 72.709 20.778 72.709 20.112C72.709 19.482 72.259 19.05 71.611 19.05C70.963 19.05 70.513 19.482 70.513 20.112C70.513 20.778 70.963 21.21 71.611 21.21ZM77.468 33.234C77.918 33.234 78.188 33.18 78.422 33.09L78.188 31.83C78.008 31.866 77.936 31.866 77.846 31.866C77.594 31.866 77.378 31.668 77.378 31.164V18.672H75.74V31.056C75.74 32.442 76.244 33.234 77.468 33.234ZM80.8728 33H82.5108V23.226H80.8728V33ZM81.7008 21.21C82.3488 21.21 82.7988 20.778 82.7988 20.112C82.7988 19.482 82.3488 19.05 81.7008 19.05C81.0528 19.05 80.6028 19.482 80.6028 20.112C80.6028 20.778 81.0528 21.21 81.7008 21.21ZM90.1318 33.234C92.3818 33.234 94.3798 31.308 94.3798 27.942C94.3798 24.954 93.0118 22.974 90.4738 22.974C89.3938 22.974 88.2958 23.586 87.4138 24.36L87.4678 22.596V18.672H85.8298V33H87.1438L87.2878 31.992H87.3598C88.2058 32.766 89.2318 33.234 90.1318 33.234ZM89.8618 31.866C89.2138 31.866 88.3318 31.596 87.4678 30.84V25.71C88.4038 24.828 89.2678 24.36 90.0958 24.36C91.9498 24.36 92.6698 25.818 92.6698 27.978C92.6698 30.408 91.4818 31.866 89.8618 31.866ZM96.9568 33H98.5948V23.226H96.9568V33ZM97.7848 21.21C98.4328 21.21 98.8828 20.778 98.8828 20.112C98.8828 19.482 98.4328 19.05 97.7848 19.05C97.1368 19.05 96.6868 19.482 96.6868 20.112C96.6868 20.778 97.1368 21.21 97.7848 21.21ZM103.642 33.234C104.092 33.234 104.362 33.18 104.596 33.09L104.362 31.83C104.182 31.866 104.11 31.866 104.02 31.866C103.768 31.866 103.552 31.668 103.552 31.164V18.672H101.914V31.056C101.914 32.442 102.418 33.234 103.642 33.234ZM107.047 33H108.685V23.226H107.047V33ZM107.875 21.21C108.523 21.21 108.973 20.778 108.973 20.112C108.973 19.482 108.523 19.05 107.875 19.05C107.227 19.05 106.777 19.482 106.777 20.112C106.777 20.778 107.227 21.21 107.875 21.21ZM123.967 20.004H129.241V28.302H130.555V18.816H122.689V28.302H123.967V20.004ZM121.681 31.002C121.321 29.994 120.691 28.752 119.935 27.438C120.781 25.206 121.411 22.56 121.753 19.536L120.907 19.284L120.655 19.338H115.381V20.616H120.331C120.061 22.56 119.611 24.36 119.053 25.998C118.243 24.72 117.343 23.442 116.479 22.308L115.453 22.974C116.497 24.342 117.559 25.962 118.459 27.528C117.541 29.706 116.371 31.47 115.075 32.622C115.381 32.856 115.831 33.324 116.065 33.63C117.289 32.478 118.369 30.93 119.269 29.004C119.809 30.048 120.259 31.02 120.529 31.83L121.681 31.002ZM128.539 33.018C128.071 33.018 127.909 32.892 127.909 32.406V28.068H126.775C127.027 27.006 127.117 25.944 127.117 24.972V21.516H125.857V24.954C125.857 27.726 125.299 31.11 120.799 33.396C121.069 33.576 121.483 34.098 121.627 34.368C124.651 32.802 126.055 30.624 126.667 28.446V32.532C126.667 33.702 127.153 34.044 128.341 34.044H129.853C131.383 34.044 131.563 33.324 131.725 30.498C131.401 30.408 130.969 30.246 130.627 29.994C130.555 32.55 130.447 33.018 129.871 33.018H128.539ZM146.179 28.194H138.367V26.952H146.179V28.194ZM138.367 32.64V31.308H146.179V32.64H138.367ZM146.179 30.372H138.367V29.112H146.179V30.372ZM149.257 24.648V23.532H139.825C140.041 23.1 140.239 22.65 140.419 22.218H148.213V21.138H140.797C140.941 20.688 141.085 20.256 141.211 19.806C143.785 19.662 146.233 19.428 148.033 19.05L147.187 18.078C144.361 18.654 138.907 18.942 134.551 18.978C134.677 19.266 134.803 19.698 134.821 20.004C136.369 20.004 138.061 19.968 139.735 19.878C139.627 20.31 139.501 20.724 139.357 21.138H134.803V22.218H138.961C138.799 22.65 138.583 23.1 138.367 23.532H133.489V24.648H137.737C136.621 26.52 135.073 28.194 133.057 29.364C133.309 29.598 133.705 30.084 133.885 30.39C135.109 29.652 136.171 28.752 137.089 27.744V34.422H138.367V33.72H146.179V34.422H147.493V25.89H138.529C138.799 25.494 139.033 25.062 139.267 24.648H149.257Z" fill="white"/>
<defs>
<filter id="filter0_d" x="0" y="0" width="168" height="53" filterUnits="userSpaceOnUse" color-interpolation-filters="sRGB">
<feFlood flood-opacity="0" result="BackgroundImageFix"/>
<feColorMatrix in="SourceAlpha" type="matrix" values="0 0 0 0 0 0 0 0 0 0 0 0 0 0 0 0 0 0 127 0"/>
<feOffset dy="1"/>
<feGaussianBlur stdDeviation="1"/>
<feColorMatrix type="matrix" values="0 0 0 0 0 0 0 0 0 0 0 0 0 0 0 0 0 0 0.25 0"/>
<feBlend mode="normal" in2="BackgroundImageFix" result="effect1_dropShadow"/>
<feBlend mode="normal" in="SourceGraphic" in2="effect1_dropShadow" result="shape"/>
</filter>
<filter id="filter1_d" x="17" y="9" width="31" height="35.0037" filterUnits="userSpaceOnUse" color-interpolation-filters="sRGB">
<feFlood flood-opacity="0" result="BackgroundImageFix"/>
<feColorMatrix in="SourceAlpha" type="matrix" values="0 0 0 0 0 0 0 0 0 0 0 0 0 0 0 0 0 0 127 0"/>
<feOffset dy="1"/>
<feGaussianBlur stdDeviation="2"/>
<feColorMatrix type="matrix" values="0 0 0 0 0 0 0 0 0 0 0 0 0 0 0 0 0 0 0.25 0"/>
<feBlend mode="normal" in2="BackgroundImageFix" result="effect1_dropShadow"/>
<feBlend mode="normal" in="SourceGraphic" in2="effect1_dropShadow" result="shape"/>
</filter>
<linearGradient id="paint0_linear" x1="-23.5" y1="-15" x2="163.5" y2="48.5" gradientUnits="userSpaceOnUse">
<stop stop-color="#FF99BE"/>
<stop offset="1" stop-color="#FA4694"/>
</linearGradient>
<linearGradient id="paint1_linear" x1="19" y1="-2.50001" x2="148" y2="71.5" gradientUnits="userSpaceOnUse">
<stop stop-color="white" stop-opacity="0.71"/>
<stop offset="1" stop-color="white" stop-opacity="0.35"/>
</linearGradient>
</defs>
</svg>
